<svg width="132" height="185" viewBox="0 0 132 185" fill="none" xmlns="http://www.w3.org/2000/svg">
<path d="M94.104 139.936C94.9573 141.899 94.8293 143.691 93.72 145.312C92.44 147.104 90.8187 148 88.856 148H85.016C83.9067 148 82.7973 147.659 81.688 146.976C80.664 146.293 79.9387 145.44 79.512 144.416L67.48 115.616C67.0533 114.592 66.2853 114.08 65.176 114.08H53.272C52.1627 114.08 51.608 114.635 51.608 115.744V142.112C51.608 143.733 51.0107 145.141 49.816 146.336C48.7067 147.445 47.3413 148 45.72 148H42.136C40.5147 148 39.1493 147.445 38.04 146.336C37.016 145.141 36.504 143.733 36.504 142.112V67.36C36.504 65.6533 37.016 64.2453 38.04 63.136C39.1493 62.0267 40.5147 61.472 42.136 61.472H76.824C79.896 61.472 82.712 62.24 85.272 63.776C87.832 65.312 89.88 67.36 91.416 69.92C92.952 72.48 93.72 75.3387 93.72 78.496V97.184C93.72 100.512 92.824 103.541 91.032 106.272C89.3253 108.917 87.064 110.965 84.248 112.416C83.9067 112.501 83.6507 112.8 83.48 113.312C83.3093 113.739 83.352 114.165 83.608 114.592L94.104 139.936ZM78.488 97.184V78.496C78.488 77.3013 77.9333 76.704 76.824 76.704H53.272C52.1627 76.704 51.608 77.2587 51.608 78.368V97.184C51.608 98.2933 52.1627 98.848 53.272 98.848H76.824C77.9333 98.848 78.488 98.2933 78.488 97.184Z" fill="#003988"/>
<path d="M117.657 78.0361V132.963L66 160.754L14.3428 132.963V78.0361L66 50.2451L117.657 78.0361Z" stroke="#003988" stroke-width="11"/>
</svg>
